<svg xmlns="http://www.w3.org/2000/svg" xmlns:xlink="http://www.w3.org/1999/xlink" width="500" zoomAndPan="magnify" viewBox="0 0 375 374.999991" height="500" preserveAspectRatio="xMidYMid meet" version="1.0"><defs><g/><clipPath id="id1"><path d="M 91.875 91.875 L 283.125 91.875 L 283.125 283.125 L 91.875 283.125 Z M 91.875 91.875 " clip-rule="nonzero"/></clipPath><clipPath id="id2"><path d="M 151.308594 187.5 L 180.558594 187.5 L 180.558594 216.75 L 151.308594 216.75 Z M 151.308594 187.5 " clip-rule="nonzero"/></clipPath></defs><g clip-path="url(#id1)"><path fill="#000000" d="M 91.875 91.875 L 91.875 283.125 L 283.125 283.125 L 283.125 91.875 L 91.875 91.875 M 277.035156 277.035156 L 97.839844 277.035156 L 97.839844 97.839844 L 277.035156 97.839844 L 277.035156 277.035156 " fill-opacity="1" fill-rule="nonzero"/></g><g clip-path="url(#id2)"><path fill="#ffc800" d="M 165.933594 187.5 C 157.855469 187.5 151.308594 194.046875 151.308594 202.125 C 151.308594 210.203125 157.855469 216.75 165.933594 216.75 C 174.011719 216.75 180.558594 210.203125 180.558594 202.125 C 180.558594 194.046875 174.011719 187.5 165.933594 187.5 " fill-opacity="1" fill-rule="nonzero"/></g><path stroke-linecap="butt" transform="matrix(0.75, 0, 0, 0.75, 151.308129, 128.399903)" fill="none" stroke-linejoin="miter" d="M 5.537078 68.998051 L 5.537078 21.701173 L 21.859996 21.701173 L 21.859996 26.675131 L 22.037079 26.675131 C 26.28708 22.430339 30.802705 20.305339 35.594372 20.305339 C 37.932914 20.305339 40.250622 20.612631 42.547498 21.227214 C 44.859998 21.847006 47.073539 22.794923 49.188123 24.08659 C 51.318331 25.378256 53.047498 27.21159 54.365207 29.581382 C 55.688123 31.951173 56.349582 34.706382 56.349582 37.841799 L 56.349582 68.998051 L 40.026664 68.998051 L 40.026664 42.253257 C 40.026664 39.794924 39.240206 37.64909 37.662081 35.815757 C 36.09958 33.972007 34.063122 33.050132 31.53708 33.050132 C 29.078747 33.050132 26.84958 34.003257 24.854788 35.909507 C 22.859996 37.810549 21.859996 39.930341 21.859996 42.253257 L 21.859996 68.998051 Z M 5.537078 68.998051 " stroke="#000000" stroke-width="3.457991" stroke-opacity="1" stroke-miterlimit="4"/><g fill="#000000" fill-opacity="1"><g transform="translate(187.499992, 221.419862)"><g><path d="M 4.15625 0 L 4.15625 -35.484375 L 16.390625 -35.484375 L 16.390625 -31.75 L 16.53125 -31.75 C 19.707031 -34.925781 23.09375 -36.515625 26.6875 -36.515625 C 28.445312 -36.515625 30.191406 -36.28125 31.921875 -35.8125 C 33.648438 -35.351562 35.304688 -34.640625 36.890625 -33.671875 C 38.484375 -32.710938 39.773438 -31.34375 40.765625 -29.5625 C 41.753906 -27.789062 42.25 -25.726562 42.25 -23.375 L 42.25 0 L 30.015625 0 L 30.015625 -20.0625 C 30.015625 -21.90625 29.425781 -23.515625 28.25 -24.890625 C 27.070312 -26.273438 25.539062 -26.96875 23.65625 -26.96875 C 21.8125 -26.96875 20.140625 -26.253906 18.640625 -24.828125 C 17.140625 -23.398438 16.390625 -21.8125 16.390625 -20.0625 L 16.390625 0 Z M 4.15625 0 "/></g></g></g></svg>