<svg xmlns="http://www.w3.org/2000/svg" xmlns:xlink="http://www.w3.org/1999/xlink" width="500" zoomAndPan="magnify" viewBox="0 0 187.5 187.499992" height="500" preserveAspectRatio="xMidYMid meet" version="1.0"><defs><g/><clipPath id="id1"><path d="M 33.960938 101.871094 L 75.191406 101.871094 L 75.191406 143.101562 L 33.960938 143.101562 Z M 33.960938 101.871094 " clip-rule="nonzero"/></clipPath></defs><g clip-path="url(#id1)"><path fill="#ffc800" d="M 54.578125 101.871094 C 43.191406 101.871094 33.960938 111.101562 33.960938 122.488281 C 33.960938 133.871094 43.191406 143.101562 54.578125 143.101562 C 65.960938 143.101562 75.191406 133.871094 75.191406 122.488281 C 75.191406 111.101562 65.960938 101.871094 54.578125 101.871094 " fill-opacity="1" fill-rule="nonzero"/></g><path stroke-linecap="butt" transform="matrix(1.043091, 0, 0, 1.043091, 33.962562, 19.676642)" fill="none" stroke-linejoin="miter" d="M 5.53712 68.998584 L 5.53712 21.700753 L 21.861051 21.700753 L 21.861051 26.677698 L 22.040805 26.677698 C 26.287498 22.431005 30.803823 20.307658 35.593525 20.307658 C 37.934074 20.307658 40.252155 20.614738 42.547766 21.228898 C 44.858357 21.843059 47.071581 22.798003 49.187438 24.089986 C 51.322019 25.378225 53.044664 27.209471 54.366607 29.57998 C 55.688549 31.954234 56.347648 34.70672 56.347648 37.84493 L 56.347648 68.998584 L 40.027462 68.998584 L 40.027462 42.256398 C 40.027462 39.796012 39.237293 37.646451 37.664443 35.815205 C 36.102828 33.972724 34.061869 33.047739 31.53782 33.047739 C 29.077434 33.047739 26.84923 34.002683 24.85321 35.908827 C 22.857189 37.811226 21.861051 39.930828 21.861051 42.256398 L 21.861051 68.998584 Z M 5.53712 68.998584 " stroke="#000000" stroke-width="3.457991" stroke-opacity="1" stroke-miterlimit="4"/><g fill="#000000" fill-opacity="1"><g transform="translate(84.297772, 149.047699)"><g><path d="M 5.765625 0 L 5.765625 -49.34375 L 22.796875 -49.34375 L 22.796875 -44.15625 L 22.984375 -44.15625 C 27.410156 -48.570312 32.125 -50.78125 37.125 -50.78125 C 39.5625 -50.78125 41.984375 -50.457031 44.390625 -49.8125 C 46.796875 -49.175781 49.101562 -48.1875 51.3125 -46.84375 C 53.53125 -45.5 55.328125 -43.59375 56.703125 -41.125 C 58.078125 -38.65625 58.765625 -35.785156 58.765625 -32.515625 L 58.765625 0 L 41.75 0 L 41.75 -27.890625 C 41.75 -30.453125 40.929688 -32.695312 39.296875 -34.625 C 37.660156 -36.550781 35.523438 -37.515625 32.890625 -37.515625 C 30.328125 -37.515625 28.003906 -36.519531 25.921875 -34.53125 C 23.835938 -32.539062 22.796875 -30.328125 22.796875 -27.890625 L 22.796875 0 Z M 5.765625 0 "/></g></g></g></svg>